<svg xmlns="http://www.w3.org/2000/svg" width="1119" height="640" fill="none" viewBox="0 0 1119 640"><path fill="#fff" d="m91.292 636 4.8-78.4h-87.2v-27.2l88-174.4h77.2l-118 165.2h42.4l2.8-45.6h66.4l2 45.2h15.6v36.8h-13.6l3.6 78.4zm164.969 4c-26 0-51.6-26-51.6-75.6 0-94.8 88-195.6 136-195.6 26 0 50.8 25.6 50.8 75.6 0 94.4-87.2 195.6-135.2 195.6m.4-8c52.8 0 110-142.8 110-210.8 0-30.8-12.4-44.4-26.8-44.4-48.8 0-110.8 136.4-110.8 210 0 33.6 12.8 45.2 27.6 45.2m207.678 4 4.8-78.4h-87.2v-27.2l88-174.4h77.2l-118 165.2h42.4l2.8-45.6h66.4l2 45.2h15.6v36.8h-13.6l3.6 78.4zM12.188 310l9.6-280h139.2v76.4h-8l-58.8-42 2 73.6h46.4v40h-44.8l2.8 94.8 60.4-44.8h8v82zM295.14 190c-5.6 0-17.6-.4-30.8-2l-37.2 110.8c8.4 1.2 28 3.2 35.2 3.2v8h-98.8v-8c6.8 0 26.4-2 34.8-3.2l14.4-42.4 66.8-199.6c-8.4-1.2-28-3.2-35.2-3.2v-8h109.6c35.6 0 56.8 15.6 56.8 52.4 0 43.6-34.8 78.8-84.8 88.8 25.6 5.2 35.6 18.8 34 48.8l-.8 21.2c-1.2 28-.8 35.2 4 35.2 5.6 0 13.6-10 24-37.6h6c-10.8 34-26 59.2-47.2 59.2-16.4 0-19.6-16-16.4-45.2l2-21.2c4.8-40-4.8-57.2-34-57.2zm-28-10.4c12.8 1.6 24.8 2 29.2 2 54 0 83.2-44.4 83.2-84.4 0-30.4-16.4-43.2-41.6-43.2h-28.8zM525.609 190c-5.6 0-17.6-.4-30.8-2l-37.2 110.8c8.4 1.2 28 3.2 35.2 3.2v8h-98.8v-8c6.8 0 26.4-2 34.8-3.2l14.4-42.4 66.8-199.6c-8.4-1.2-28-3.2-35.2-3.2v-8h109.6c35.6 0 56.8 15.6 56.8 52.4 0 43.6-34.8 78.8-84.8 88.8 25.6 5.2 35.6 18.8 34 48.8l-.8 21.2c-1.2 28-.8 35.2 4 35.2 5.6 0 13.6-10 24-37.6h6c-10.8 34-26 59.2-47.2 59.2-16.4 0-19.6-16-16.4-45.2l2-21.2c4.8-40-4.8-57.2-34-57.2zm-28-10.4c12.8 1.6 24.8 2 29.2 2 54 0 83.2-44.4 83.2-84.4 0-30.4-16.4-43.2-41.6-43.2h-28.8zm265.269 133.6c-67.2 0-116.8-39.2-116.8-142 0-101.6 48.4-144.4 118.4-144.4 68 0 112.8 40.4 112.8 142.4 0 104.8-47.2 144-114.4 144m-.4-39.6c14 0 27.6-16 27.6-106.4s-13.6-100.8-27.6-100.8-29.2 10.4-29.2 100.8 15.2 106.4 29.2 106.4M1003.34 190c-5.596 0-17.596-.4-30.796-2l-37.2 110.8c8.4 1.2 28 3.2 35.2 3.2v8h-98.8v-8c6.8 0 26.4-2 34.8-3.2l14.4-42.4 66.8-199.6c-8.4-1.2-28-3.2-35.2-3.2v-8h109.596c35.6 0 56.8 15.6 56.8 52.4 0 43.6-34.8 78.8-84.8 88.8 25.6 5.2 35.6 18.8 34 48.8l-.8 21.2c-1.2 28-.8 35.2 4 35.2 5.6 0 13.6-10 24-37.6h6c-10.8 34-26 59.2-47.2 59.2-16.4 0-19.6-16-16.4-45.2l2-21.2c4.8-40-4.8-57.2-34-57.2zm-27.996-10.4c12.8 1.6 24.796 2 29.196 2 54 0 83.2-44.4 83.2-84.4 0-30.4-16.4-43.2-41.6-43.2h-28.8z"/></svg>