<svg xmlns="http://www.w3.org/2000/svg" width="1258" height="925" fill="none" viewBox="0 0 1258 925"><path fill="#ff4203" d="M89.834 117.653.37 513.738A15 15 0 0 0 0 517.043v404.848c0 8.284 6.716 15 15 15h1227.21c18.54 0 20.59-27.033 2.26-29.829l-491.625-74.997c-13.562-2.069-17.46-19.753-6.025-27.332l468.46-310.458c14.27-9.461 4.1-31.606-12.38-26.934l-516.764 146.5c-12.762 3.618-23.594-9.893-17.287-21.563l308.053-570.03c7.756-14.354-9.742-29.024-22.521-18.882L274.728 542.763c-8.234 6.536-20.463 2.792-23.628-7.232l-132.331-419.09c-4.61-14.601-25.561-13.724-28.935 1.212"/></svg>