<svg xmlns="http://www.w3.org/2000/svg" width="93" height="34" fill="none" viewBox="0 0 93 34"><path fill="#001621" d="M80.01 31.034c-2.19 0-3.634-1.273-3.634-3.402 0-2.791 1.742-3.917 7.367-3.917v-.073c0-1.86-.797-2.644-2.49-2.644-1.368 0-2.264.343-3.484 1.762l-1.17-1.248c1.42-1.567 2.738-2.154 4.78-2.154 3.732 0 4.18 2.472 4.18 4.26v7.122h-1.816v-1.713c-.946 1.273-2.265 2.007-3.733 2.007m.248-1.591c1.22 0 2.24-.661 3.485-2.546v-1.689c-4.306 0-5.55.588-5.55 2.424 0 1.321.771 1.81 2.065 1.81M65.52 30.74h-1.818V19.676h1.817v4.504h6.222v-4.504h1.817V30.74H71.74v-4.895h-6.222zM60.314 30.74h-1.816v-8.298l-6.471 8.298h-1.668V19.676h1.817v8.225l6.446-8.225h1.692zm-4.977-13.12c-1.941 0-3.41-.587-4.406-2.325l1.444-1.028c.772 1.321 1.443 1.713 2.962 1.713 1.518 0 2.19-.392 2.961-1.713l1.444 1.028c-.996 1.738-2.464 2.325-4.405 2.325M41.56 31.034c-2.19 0-3.634-1.273-3.634-3.402 0-2.791 1.743-3.917 7.367-3.917v-.073c0-1.86-.796-2.644-2.488-2.644-1.37 0-2.265.343-3.485 1.762l-1.17-1.248c1.42-1.567 2.738-2.154 4.779-2.154 3.733 0 4.18 2.472 4.18 4.26v7.122h-1.816v-1.713c-.946 1.273-2.264 2.007-3.733 2.007m.249-1.591c1.22 0 2.24-.661 3.484-2.546v-1.689c-4.305 0-5.55.588-5.55 2.424 0 1.321.772 1.81 2.066 1.81M31.602 29.394c1.667 0 2.488-.98 2.488-2.032 0-.979-.945-1.542-2.19-1.542h-1.518v-1.64H31.9c1.12 0 1.842-.66 1.842-1.567 0-.954-.597-1.566-1.817-1.566-1.468 0-2.04.44-3.136 1.689-.024-.025-1.22-1.15-1.22-1.15 1.295-1.592 2.564-2.204 4.356-2.204 2.315 0 3.584 1.396 3.584 3.011 0 1.175-.572 2.007-1.468 2.546 1.17.514 1.866 1.395 1.866 2.546 0 1.787-1.418 3.598-4.305 3.598-1.668 0-2.887-.465-4.356-2.056l1.22-1.175c1.194 1.175 1.817 1.542 3.136 1.542M14.881 19.676h1.817v8.225l6.446-8.225h1.692V30.74H23.02v-8.298l-6.47 8.298H14.88zM1.742 30.74v3.232H0v-4.896h1.394c1.617-2.595 1.617-6.487 1.617-9.4h7.865v9.4h1.618v4.895H10.75v-3.23zm7.317-1.664V21.34H4.83c0 2.643-.3 5.287-1.42 7.735zM58.597 11.676c-2.19 0-3.633-1.273-3.633-3.402 0-2.79 1.742-3.917 7.366-3.917v-.073c0-1.86-.796-2.644-2.488-2.644-1.37 0-2.265.343-3.485 1.762l-1.17-1.248C56.608.587 57.926 0 59.968 0c3.732 0 4.18 2.472 4.18 4.26v7.122H62.33V9.67c-.945 1.273-2.264 2.007-3.733 2.007m.25-1.591c1.218 0 2.239-.66 3.483-2.546V5.85c-4.305 0-5.55.588-5.55 2.424 0 1.321.772 1.811 2.066 1.811M41.503 11.358V9.596c.224.097.548.122.747.122 1.742 0 2.215-2.62 2.215-9.4h7.69v11.064h-1.817v-9.4h-4.106c0 6.39-.92 9.498-3.758 9.498-.324 0-.647-.049-.97-.122M34.855 1.665c-2.315 0-4.007 1.884-4.007 4.185 0 2.277 1.692 4.162 4.007 4.162 2.34 0 3.957-1.885 3.957-4.162 0-2.3-1.618-4.185-3.957-4.185M29.03 5.85c0-3.23 2.539-5.85 5.824-5.85s5.774 2.62 5.774 5.85c0 3.207-2.49 5.826-5.774 5.826-3.285 0-5.824-2.62-5.824-5.826M18.375 11.382V.318h1.817v4.504h.896L25.493.318h2.24L22.63 5.557c1.617.66 2.712 4.185 4.654 4.185.224 0 .448-.049.697-.146v1.786a4 4 0 0 1-1.02.147c-3.012 0-3.833-4.014-5.725-5.042h-1.045v4.895zM7.118 9.718v-9.4h1.817v9.4h4.23v-9.4h1.818v11.064H1.07V.318h1.817v9.4z"/></svg>