<svg xmlns="http://www.w3.org/2000/svg" width="92" height="34" fill="none" viewBox="0 0 92 34"><path fill="#fff" d="M79.15 31.034c-2.168 0-3.595-1.273-3.595-3.402 0-2.791 1.723-3.917 7.287-3.917v-.073c0-1.86-.788-2.644-2.462-2.644-1.354 0-2.24.343-3.447 1.762l-1.157-1.248c1.403-1.567 2.708-2.154 4.727-2.154 3.693 0 4.136 2.472 4.136 4.26v7.122h-1.797v-1.713c-.936 1.273-2.24 2.007-3.693 2.007m.245-1.591c1.207 0 2.216-.661 3.447-2.546v-1.689c-4.26 0-5.49.588-5.49 2.424 0 1.321.763 1.81 2.043 1.81M64.814 30.74h-1.797V19.676h1.797v4.504h6.155v-4.504h1.798V30.74h-1.798v-4.895h-6.154zM59.666 30.74h-1.797v-8.298l-6.402 8.298h-1.65V19.676h1.798v8.225l6.377-8.225h1.674zm-4.924-13.12c-1.92 0-3.373-.588-4.358-2.325l1.428-1.028c.763 1.321 1.428 1.713 2.93 1.713s2.166-.392 2.93-1.713l1.428 1.028c-.986 1.737-2.438 2.325-4.358 2.325M41.113 31.034c-2.166 0-3.594-1.273-3.594-3.402 0-2.791 1.723-3.917 7.287-3.917v-.073c0-1.86-.788-2.644-2.462-2.644-1.354 0-2.24.343-3.447 1.762l-1.157-1.248c1.404-1.567 2.708-2.154 4.727-2.154 3.693 0 4.136 2.472 4.136 4.26v7.122h-1.797v-1.713c-.935 1.273-2.24 2.007-3.693 2.007m.246-1.591c1.207 0 2.216-.661 3.447-2.546v-1.689c-4.26 0-5.49.588-5.49 2.424 0 1.321.763 1.81 2.043 1.81M31.262 29.394c1.65 0 2.462-.98 2.462-2.032 0-.979-.936-1.542-2.167-1.542h-1.501v-1.64h1.501c1.108 0 1.822-.66 1.822-1.567 0-.954-.59-1.566-1.797-1.566-1.453 0-2.019.44-3.102 1.689l-1.207-1.15c1.28-1.592 2.536-2.204 4.309-2.204 2.29 0 3.545 1.396 3.545 3.011 0 1.175-.566 2.007-1.452 2.546 1.157.514 1.846 1.395 1.846 2.546 0 1.787-1.403 3.598-4.26 3.598-1.649 0-2.855-.465-4.308-2.056l1.207-1.175c1.182 1.175 1.797 1.542 3.102 1.542M14.721 19.676h1.797v8.225l6.377-8.225h1.674V30.74h-1.797v-8.298L16.37 30.74h-1.65zM1.723 30.74v3.231H0v-4.895h1.379c1.6-2.595 1.6-6.487 1.6-9.4h7.78v9.4h1.6v4.895h-1.723v-3.23zm7.239-1.664V21.34H4.776c0 2.643-.295 5.287-1.403 7.735zM57.967 11.676c-2.166 0-3.594-1.273-3.594-3.402 0-2.79 1.723-3.917 7.287-3.917v-.073c0-1.86-.787-2.644-2.462-2.644-1.354 0-2.24.343-3.447 1.762l-1.157-1.248C55.998.587 57.303 0 59.321 0c3.693 0 4.137 2.472 4.137 4.26v7.122H61.66V9.67c-.935 1.273-2.24 2.007-3.693 2.007m.247-1.591c1.206 0 2.215-.66 3.446-2.546V5.85c-4.259 0-5.49.588-5.49 2.424 0 1.321.763 1.811 2.044 1.811M41.057 11.358V9.596c.221.097.541.122.738.122 1.724 0 2.192-2.62 2.192-9.4h7.607v11.064h-1.797v-9.4h-4.062c0 6.39-.911 9.498-3.718 9.498-.32 0-.64-.049-.96-.122M34.48 1.665c-2.29 0-3.964 1.884-3.964 4.185 0 2.277 1.674 4.162 3.964 4.162 2.314 0 3.915-1.885 3.915-4.162 0-2.3-1.6-4.185-3.915-4.185M28.719 5.85C28.719 2.62 31.23 0 34.48 0s5.712 2.62 5.712 5.85c0 3.207-2.462 5.826-5.712 5.826s-5.761-2.62-5.761-5.826M18.177 11.382V.318h1.798v4.504h.886L25.219.318h2.215l-5.047 5.239c1.6.66 2.684 4.185 4.604 4.185.222 0 .444-.049.69-.146v1.786a4 4 0 0 1-1.01.147c-2.979 0-3.791-4.014-5.662-5.042h-1.034v4.895zM7.041 9.718v-9.4H8.84v9.4h4.185v-9.4h1.797v11.064H1.06V.318h1.797v9.4z"/></svg>