<svg xmlns="http://www.w3.org/2000/svg" width="72" height="35" fill="none" viewBox="0 0 72 35"><path fill="#fff" d="M9.497 17.501c8.454.094 8.3 2.813 7.259 6.059-1.133 3.529-3.018-3.11-9.507-2.883-4.5.157-2.749 2.639 1.4 3.035 1.497.143 8.85.882 9.348 5.407C17.997 33.581 15.566 35 14 35c-1.297 0 2.025-1.246 1.422-3-.889-2.582-.773 3-6.315 3S.172 33.765.077 31.3C-.086 27.014 6.902 27 8.648 29.324c.714.95-3.478 1.396 0 1.976 2.349.391 5.349-.555 5.35-2.447 0-1.307-1.054-1.68-1.5-1.892-1-.473-2.091-.456-3-.473-1.163-.021-2.409.72-4.12.82-5.3.31-5.593-3.834-5.3-5.535.166-.975.965-4.366 9.42-4.272m13.464.193c-.023.102-3.337 14.496-.964 8.322 1.992-5.183 5.476-8.297 5.503-8.322l7.323.026c-8.506 4.075-15.69 18.02-11.093 13.11 2.257-2.412 1.346-6.262 5.62-6.308 4.274-.048 6.347 9.804 6.347 9.804l-4.654.01s2.563-6.385.324-5.577c-2.168.782-1.986 3.324-3.37 2.932-1.6-.452 2-3.31.5-4.256-1.796-1.133-3.231 6.891-3.231 6.891h-6.368V17.694zm27.315.027c2.209-.06 2.921 0 2.921 0v16.616H47.25s-1.417-3.235 1.85-5.674 1.378-7.041.898-4.54c-.672 3.504-3.246 4.56-5.844 5.951-1.755.94-1.156 3.983-2.973 4.143-2.828.249.279-2.982-.683-2.526-2.523 1.2-1.799 2.646-1.799 2.646h-2.3V17.72h5.374s1.129 1.427 0 3.73c-1.128 2.305-3.242 5.079-3.53 7.666-.169 1.52 1.453.661 3.267-2.4 1.814-3.059 3.718-1.356 5.453-3.015 1.96-1.875.681-5.91 3.314-5.981m15.416 1.26-1.512 4.823 3.744-2.736 1.872-.612 1.404 4.248-1.872.612-4.392.144 3.888 2.808 1.188 1.62-3.636 2.628-1.152-1.62-1.764-4.968-1.8 4.968-1.152 1.62-3.636-2.628 1.188-1.62 3.888-2.808-4.356-.144-1.872-.612 1.404-4.248 1.872.612 3.744 2.736-1.512-4.823V17h4.464zM27.297 0c4.64 0 8.4 3.445 8.4 8.041s-3.76 8.321-8.4 8.321-8.4-3.725-8.4-8.321S22.658 0 27.298 0m18.075.01c6.94.207 7.623 16.032 7.625 16.072h-6.895c-.011-.025-1.23-2.798.947-5.447 2.187-2.662.552-6.413-.818-6.072-1.37.34-2.39 3.951-2.39 6.686 0 1.943-3.667-1.501-1.844-3.208 1.822-1.706-5.812 2.253-1.876 4.846 3.908 2.573 3.507 3.186 3.501 3.195h-7.625C37.045.07 42.245-.082 45.372.011M18.197 15.697h-6.635s4.935-.56 3.435-10.966c-.454-3.147-3.745-.069-6 1.892-.35.305-3.5 1.892-3 0 .657-2.485 3.134-3.903.5-3.311-2.84.638-2.707 6.084-2.19 8.749.685 3.526 2.95 3.635 2.98 3.636h-5.89V0h16.8zM61.597 0c4.639 0 8.4 3.296 8.4 7.708s-3.761 7.988-8.4 7.988-8.4-3.576-8.4-7.988S56.957 0 61.597 0M23.992 2.849c-.979.11-.917.947-.986 3.651-.114 4.404.884 4.665 2.704 5.218 1.718.521 3.733.833 4.878.311.48-.219 1.261-2.002-.87-1.355-1.634.496-.386-.497-1.559-1.566-.572-.521-.474-1.564 1.146-1.564 1.618 0-.573 2.087.572 2.087.573 0 .986-1.044 2.29-1.566.979-.391 1.718-2.608-1.58-2.086-.602.095-.138-.522-1.41-1.374-1.454-.973-1.755 0-2.163-.312-1.148-.876-2.11-1.547-3.022-1.444m34 0c-.979.11-.917.947-.986 3.651-.114 4.404.884 4.665 2.704 5.218 1.718.521 3.733.833 4.878.311.48-.219 1.262-2.002-.87-1.355-1.634.496-.386-.497-1.559-1.566-.572-.521-.474-1.564 1.146-1.564 1.618 0-.573 2.087.572 2.087.572 0 .986-1.044 2.29-1.566.979-.391 1.718-2.608-1.58-2.086-.602.095-.138-.522-1.41-1.374-1.454-.973-1.755 0-2.163-.312-1.149-.876-2.11-1.547-3.022-1.444"/></svg>